HIERARCHY
ROOT Hips
{
	OFFSET 0.000000 0.000000 0.000000
	CHANNELS 6 Xposition Yposition Zposition Xrotation Yrotation Zrotation
	JOINT Chest
	{
		OFFSET 0.000000 0.009282 11.569106
		CHANNELS 3 Xrotation Yrotation Zrotation
		JOINT Chest2
		{
			OFFSET 0.000000 -0.016863 9.269641
			CHANNELS 3 Xrotation Yrotation Zrotation
			JOINT Chest3
			{
				OFFSET 0.000000 0.000000 8.374491
				CHANNELS 3 Xrotation Yrotation Zrotation
				JOINT Chest4
				{
					OFFSET 0.000000 0.000000 8.374493
					CHANNELS 3 Xrotation Yrotation Zrotation
					JOINT Neck
					{
						OFFSET 0.000000 -0.000001 12.152554
						CHANNELS 3 Xrotation Yrotation Zrotation
						JOINT Head
						{
							OFFSET 0.000000 -0.040100 7.802319
							CHANNELS 3 Xrotation Yrotation Zrotation
							End Site
							{
								OFFSET 0.000000 -0.020946 14.853096
							}
						}
					}
					JOINT RightCollar
					{
						OFFSET -2.894404 0.000000 6.791374
						CHANNELS 3 Xrotation Yrotation Zrotation
						JOINT RightShoulder
						{
							OFFSET -13.574684 0.000000 0.000000
							CHANNELS 3 Xrotation Yrotation Zrotation
							JOINT RightElbow
							{
								OFFSET -23.923903 0.000000 0.000000
								CHANNELS 3 Xrotation Yrotation Zrotation
								JOINT RightWrist
								{
									OFFSET -19.846718 -0.012765 0.000000
									CHANNELS 3 Xrotation Yrotation Zrotation
									End Site
									{
										OFFSET -14.973145 0.000000 0.000000
									}
								}
							}
						}
					}
					JOINT LeftCollar
					{
						OFFSET 2.894404 0.000000 6.791374
						CHANNELS 3 Xrotation Yrotation Zrotation
						JOINT LeftShoulder
						{
							OFFSET 13.574684 0.000000 0.000000
							CHANNELS 3 Xrotation Yrotation Zrotation
							JOINT LeftElbow
							{
								OFFSET 23.923903 0.000000 0.000000
								CHANNELS 3 Xrotation Yrotation Zrotation
								JOINT LeftWrist
								{
									OFFSET 19.846718 -0.012765 0.000000
									CHANNELS 3 Xrotation Yrotation Zrotation
									End Site
									{
										OFFSET 14.973145 0.000000 0.000000
									}
								}
							}
						}
					}
				}
			}
		}
	}
	JOINT RightHip
	{
		OFFSET -9.469263 -0.004642 0.045487
		CHANNELS 3 Xrotation Yrotation Zrotation
		JOINT RightKnee
		{
			OFFSET 0.000000 -0.002666 -40.478676
			CHANNELS 3 Xrotation Yrotation Zrotation
			JOINT RightAnkle
			{
				OFFSET 0.000000 -0.049110 -35.224068
				CHANNELS 3 Xrotation Yrotation Zrotation
				JOINT RightToe
				{
					OFFSET 0.000000 -12.539530 -6.151390
					CHANNELS 3 Xrotation Yrotation Zrotation
					End Site
					{
						OFFSET 0.000000 -5.044995 -1.291870
					}
				}
			}
		}
	}
	JOINT LeftHip
	{
		OFFSET 9.469263 -0.004642 0.045487
		CHANNELS 3 Xrotation Yrotation Zrotation
		JOINT LeftKnee
		{
			OFFSET 0.000000 -0.002666 -40.478676
			CHANNELS 3 Xrotation Yrotation Zrotation
			JOINT LeftAnkle
			{
				OFFSET 0.000000 -0.049110 -35.224068
				CHANNELS 3 Xrotation Yrotation Zrotation
				JOINT LeftToe
				{
					OFFSET 0.000000 -12.539530 -6.151390
					CHANNELS 3 Xrotation Yrotation Zrotation
					End Site
					{
						OFFSET 0.000000 -5.044995 -1.291870
					}
				}
			}
		}
	}
}
MOTION
Frames: 14
Frame Time: 0.016667
-11.563589 -5.863316 82.891342 2.535404 7.235282 -109.907982 3.147974 0.714959 1.864392 1.407546 0.317751 0.818230 1.407545 0.317751 0.818226 1.056083 0.236431 0.614404 17.364457 -1.277875 -4.422884 -3.895118 -0.817144 -8.504355 -2.549086 -10.314475 -6.560489 -61.504631 -45.074549 -25.821371 -46.872610 -27.535510 13.682629 -37.019106 -9.434589 -3.554093 3.557989 10.080090 -7.177392 -54.852706 44.151067 19.884200 -41.257867 22.460884 -16.608568 -51.310464 16.464062 0.853543 6.541266 0.967886 -1.100701 9.608096 -3.096406 -5.921952 -7.918252 2.739588 0.489592 0.027606 -0.021924 0.040511 9.329070 0.682582 1.441868 5.678598 -0.599135 1.647054 -7.788565 -0.415580 2.028080 0.017520 0.053025 -0.019355 
-11.568619 -5.842889 82.892609 2.515561 7.229961 -109.871570 3.149190 0.719467 1.862274 1.407671 0.319979 0.817138 1.407670 0.319978 0.817141 1.056179 0.238104 0.613594 17.409614 -1.275258 -4.402527 -3.811940 -0.822146 -8.465954 -2.587610 -10.304488 -6.604962 -61.495157 -44.796550 -25.861507 -46.734388 -27.226642 13.529407 -36.658107 -9.890962 -4.009800 3.516506 10.092794 -7.164390 -54.948083 43.968209 19.950400 -41.222907 22.192639 -16.437665 -51.029327 16.744183 1.270547 6.560412 0.964018 -1.140891 9.572216 -3.090405 -5.899856 -7.918937 2.754228 0.471448 0.028817 -0.022060 0.038571 9.326974 0.681746 1.427116 5.669031 -0.602548 1.626981 -7.786497 -0.412744 2.034501 0.016672 0.052726 -0.018117 
-11.576692 -5.819221 82.894791 2.496479 7.221624 -109.823718 3.149328 0.723420 1.857171 1.406930 0.321657 0.815343 1.406930 0.321657 0.815345 1.055625 0.239368 0.612251 17.458561 -1.274517 -4.383726 -3.721801 -0.830248 -8.431005 -2.631938 -10.303656 -6.636389 -61.419404 -44.483779 -25.865260 -46.597634 -26.924715 13.390807 -36.300488 -10.331716 -4.459508 3.482383 10.103054 -7.144977 -55.020066 43.764823 20.000932 -41.150858 21.949725 -16.272796 -50.751464 16.996644 1.626493 6.595201 0.953401 -1.184815 9.507023 -3.081003 -5.877922 -7.909144 2.768130 0.445480 0.030443 -0.020770 0.037493 9.328866 0.678402 1.410052 5.648855 -0.609842 1.601370 -7.780900 -0.404750 2.012628 0.016089 0.050306 -0.017546 
-11.589034 -5.793644 82.897980 2.477999 7.207602 -109.767410 3.155433 0.729188 1.852015 1.408994 0.323746 0.813707 1.408993 0.323746 0.813708 1.057175 0.240936 0.611033 17.503476 -1.280683 -4.367378 -3.639492 -0.849830 -8.402891 -2.704603 -10.292287 -6.705637 -61.267623 -44.205077 -25.829180 -46.503384 -26.631085 13.262942 -35.938044 -10.797914 -4.940413 3.431398 10.106100 -7.134200 -55.043053 43.549815 20.028456 -41.056878 21.694884 -16.118084 -50.509379 17.294136 1.998997 6.648244 0.936902 -1.232639 9.402197 -3.068414 -5.872133 -7.885335 2.775111 0.430424 0.033007 -0.015631 0.036615 9.333248 0.672139 1.389970 5.617417 -0.623319 1.565813 -7.769350 -0.391693 2.029901 0.013877 0.047610 -0.017628 
-11.605532 -5.763649 82.902176 2.459587 7.183192 -109.705119 3.163285 0.732836 1.844980 1.411511 0.325135 0.812143 1.411511 0.325135 0.812145 1.059064 0.241977 0.609857 17.544898 -1.291640 -4.352261 -3.563919 -0.877494 -8.378683 -2.770106 -10.275197 -6.767701 -61.149085 -43.910883 -25.823087 -46.408096 -26.340870 13.163441 -35.538731 -11.295518 -5.441031 3.401988 10.094839 -7.141862 -55.078587 43.329381 20.054424 -40.974482 21.422137 -15.960583 -50.204523 17.635224 2.389050 6.718621 0.908722 -1.277121 9.250622 -3.046392 -5.904688 -7.845916 2.769164 0.435262 0.037024 -0.005934 0.035923 9.338121 0.659819 1.374154 5.570487 -0.635931 1.512444 -7.751062 -0.378503 2.038417 0.010452 0.044424 -0.016936 
-11.627179 -5.730736 82.906990 2.441291 7.148329 -109.638026 3.167419 0.732218 1.834804 1.411878 0.324142 0.810157 1.411877 0.324142 0.810156 1.059336 0.241237 0.608367 17.586537 -1.302589 -4.339646 -3.487823 -0.904294 -8.359013 -2.819469 -10.248190 -6.813894 -61.083700 -43.577608 -25.851049 -46.331495 -26.068180 13.063540 -35.098669 -11.774680 -5.960198 3.357603 10.085214 -7.141247 -55.070784 43.098186 20.061862 -40.889262 21.132416 -15.791443 -49.837192 17.976230 2.764569 6.804653 0.873170 -1.332990 9.056674 -3.017642 -5.954518 -7.791634 2.750969 0.460245 0.041541 0.008210 0.034700 9.342344 0.641438 1.358084 5.511154 -0.647502 1.454275 -7.727677 -0.363608 2.033703 0.005684 0.040918 -0.016841 
-11.654162 -5.695118 82.912148 2.423750 7.105978 -109.575154 3.167601 0.729067 1.827974 1.410093 0.321924 0.811074 1.410094 0.321924 0.811076 1.057997 0.239574 0.609052 17.625119 -1.311625 -4.330462 -3.417171 -0.926254 -8.344967 -2.879240 -10.223288 -6.865941 -61.029202 -43.218872 -25.887250 -46.265212 -25.803922 12.966419 -34.621252 -12.205066 -6.468432 3.310738 10.074946 -7.145200 -55.049125 42.864444 20.065774 -40.785689 20.818553 -15.632208 -49.457652 18.298606 3.110293 6.905401 0.833371 -1.402261 8.827470 -2.983790 -6.007423 -7.727811 2.723789 0.510382 0.048591 0.024680 0.034538 9.349585 0.621277 1.340177 5.440860 -0.660890 1.398888 -7.701518 -0.348047 2.051591 0.000015 0.038875 -0.017884 
-11.685492 -5.661929 82.917068 2.390389 7.057920 -109.513839 3.158009 0.737136 1.815090 1.404188 0.320209 0.809894 1.404186 0.320209 0.809897 1.053563 0.238297 0.608158 17.659907 -1.315406 -4.316762 -3.353369 -0.939911 -8.320935 -2.929587 -10.198876 -6.904057 -60.990031 -42.832168 -25.929454 -46.159183 -25.541363 12.874993 -34.110388 -12.612462 -6.919564 3.279558 10.054292 -7.126744 -55.061423 42.620729 20.088758 -40.666448 20.535671 -15.471936 -49.119415 18.578839 3.405689 7.008010 0.816782 -1.478789 8.578913 -2.947614 -6.055806 -7.660267 2.670716 0.579702 0.059037 0.051283 0.017564 9.357766 0.618387 1.314529 5.350117 -0.674699 1.337727 -7.663854 -0.334984 2.057185 -0.008001 0.035819 -0.018193 
-11.717210 -5.629139 82.921410 2.366980 6.995534 -109.469143 3.139584 0.732662 1.806926 1.396414 0.317607 0.808865 1.396416 0.317607 0.808866 1.047732 0.236359 0.607374 17.687231 -1.315488 -4.302054 -3.303211 -0.946690 -8.293869 -3.010035 -10.174438 -6.952798 -60.892072 -42.434135 -25.944347 -45.997072 -25.278298 12.786857 -33.638951 -13.054960 -7.355077 3.225096 10.054271 -7.115257 -55.089949 42.326672 20.159105 -40.536818 20.307746 -15.333428 -48.889220 18.801049 3.666516 7.103594 0.780456 -1.545785 8.314749 -2.909116 -6.101487 -7.578314 2.629425 0.635818 0.065255 0.068796 0.015952 9.366555 0.603320 1.298594 5.241462 -0.686888 1.283910 -7.620567 -0.322117 2.085366 -0.013684 0.033500 -0.018457 
-11.749242 -5.597177 82.925697 2.339321 6.929514 -109.433626 3.124047 0.730672 1.803062 1.390014 0.317228 0.809366 1.390014 0.317228 0.809365 1.042930 0.236083 0.607746 17.701695 -1.315505 -4.286903 -3.276906 -0.952695 -8.266092 -3.105216 -10.137193 -7.041467 -60.757497 -42.064676 -25.930878 -45.831198 -25.042660 12.700145 -33.245840 -13.490144 -7.823442 3.179299 10.055078 -7.125172 -55.166212 41.993512 20.255594 -40.421063 20.123388 -15.205620 -48.768657 18.978468 3.895076 7.196619 0.746034 -1.616968 8.043231 -2.864683 -6.136045 -7.492788 2.586855 0.692114 0.072394 0.082399 0.015182 9.380374 0.592098 1.283136 5.113419 -0.694261 1.240099 -7.567386 -0.310576 2.104220 -0.019268 0.030186 -0.018408 
-11.781706 -5.568867 82.929848 2.310193 6.855509 -109.408900 3.110660 0.731495 1.799227 1.384531 0.317715 0.809668 1.384532 0.317715 0.809669 1.038820 0.236453 0.607971 17.706693 -1.315366 -4.267610 -3.268301 -0.959226 -8.230807 -3.169874 -10.109313 -7.105402 -60.611003 -41.695467 -25.887438 -45.681852 -24.829416 12.625491 -32.812673 -13.915829 -8.276287 3.140423 10.058531 -7.116045 -55.241757 41.654144 20.323156 -40.338858 19.937356 -15.084587 -48.643210 19.179176 4.125368 7.283538 0.714796 -1.681227 7.762952 -2.819329 -6.169631 -7.399596 2.540283 0.756262 0.078338 0.094036 0.012992 9.397727 0.581542 1.279771 4.961929 -0.697501 1.195880 -7.503355 -0.300881 2.122829 -0.023489 0.025638 -0.017628 
-11.815548 -5.540206 82.934265 2.279452 6.773371 -109.392078 3.103906 0.734369 1.799190 1.381331 0.319537 0.812609 1.381331 0.319537 0.812612 1.036423 0.237818 0.610175 17.701369 -1.318958 -4.249731 -3.279041 -0.971448 -8.199465 -3.221200 -10.088746 -7.164862 -60.458471 -41.318792 -25.828384 -45.523412 -24.633584 12.579881 -32.322801 -14.381634 -8.772707 3.114385 10.046204 -7.122807 -55.353625 41.309452 20.379944 -40.278541 19.712886 -14.960397 -48.480994 19.418786 4.393845 7.376146 0.680218 -1.745363 7.454033 -2.768113 -6.200830 -7.292622 2.491954 0.825212 0.084905 0.103855 0.011686 9.417684 0.571227 1.284111 4.791015 -0.699765 1.144342 -7.428181 -0.291616 2.148564 -0.029343 0.020936 -0.017041 
-11.849745 -5.512898 82.939423 2.243823 6.681116 -109.372687 3.096232 0.738045 1.795711 1.377965 0.321784 0.814111 1.377966 0.321784 0.814108 1.033902 0.239504 0.611312 17.690197 -1.321588 -4.231071 -3.300592 -0.981829 -8.166421 -3.318316 -10.075319 -7.235122 -60.252452 -40.926753 -25.748830 -45.331317 -24.453643 12.559431 -31.766137 -14.861901 -9.314127 3.062266 10.032804 -7.126579 -55.489434 40.928092 20.459412 -40.208074 19.493524 -14.825259 -48.282703 19.663326 4.695157 7.464275 0.644029 -1.808710 7.130367 -2.710524 -6.243149 -7.176354 2.436790 0.895837 0.089902 0.113481 0.010671 9.430998 0.562040 1.276949 4.608481 -0.700391 1.104610 -7.342721 -0.279458 2.170365 -0.037292 0.014430 -0.016931 
-11.882943 -5.488775 82.944908 2.205135 6.580920 -109.356253 3.081646 0.741590 1.791047 1.372021 0.323760 0.814755 1.372021 0.323760 0.814755 1.029448 0.240993 0.611794 17.681142 -1.321536 -4.213168 -3.318007 -0.987196 -8.133832 -3.421259 -10.059783 -7.296005 -60.014195 -40.490932 -25.660546 -45.106808 -24.297799 12.529600 -31.146134 -15.357463 -9.859061 2.988336 10.030485 -7.116477 -55.596681 40.505955 20.544278 -40.101929 19.322180 -14.696614 -48.088702 19.854784 5.004936 7.542858 0.609454 -1.863386 6.804244 -2.651059 -6.290601 -7.054881 2.377330 0.966898 0.093150 0.122135 0.009678 9.441154 0.555317 1.265630 4.411217 -0.700069 1.081188 -7.245170 -0.263179 2.189946 -0.046734 0.005355 -0.017090 
